<svg xmlns="http://www.w3.org/2000/svg" xmlns:xlink="http://www.w3.org/1999/xlink" viewBox="0 0 135.61 135.75"><defs><style>.cls-1{fill:url(#linear-gradient);}.cls-2{fill:#324d5e;}</style><linearGradient id="linear-gradient" x1="-48.41" y1="156.2" x2="402.26" y2="-194.85" gradientTransform="translate(1.95) scale(1.01 1)" gradientUnits="userSpaceOnUse"><stop offset="0.2" stop-color="#fff"/><stop offset="0.52" stop-color="#6f8b99"/></linearGradient></defs><title>logo_1</title><g id="Layer_2" data-name="Layer 2"><g id="vector"><path class="cls-1" d="M132.64,68.66a66.34,66.34,0,0,1-66.23,66.45C41.8,135.11,24,120,11.34,101.67a58.92,58.92,0,0,1-10-33C1.32,32,29.84,2.2,66.41,2.2a66.36,66.36,0,0,1,66.23,66.46Z"/><path class="cls-2" d="M69.75,83.65l.81.31c1.38.53,2.74,1.16,4.16,1.55,2.36.65,4.76,1.16,7.14,1.7a8.64,8.64,0,0,0,1.82.23c.24,0,.48-.25.72-.39-.14-.21-.24-.53-.45-.63a8.27,8.27,0,0,0-1.47-.52,40.27,40.27,0,0,1-8.66-3.36,37,37,0,0,1-8.48-7,5.45,5.45,0,0,0-3.21-1.79c2.14,2.1,4.33,4.14,6.54,6.17a29.76,29.76,0,0,0,7.62,4.68,16.19,16.19,0,0,1-8.72-4.21,59.1,59.1,0,0,0-4.78-3.88,5.06,5.06,0,0,0-4.9-.84,13.38,13.38,0,0,1,3.21,1.21c2.39,1.72,4.64,3.62,6.95,5.45-.87-.57-1.75-1.12-2.58-1.72-2-1.44-4-2.93-6.5-3.42a8.75,8.75,0,0,0-4-.19,1.94,1.94,0,0,0,.74.32,24.12,24.12,0,0,1,8.75,4c2.15,1.56,4.38,3,6.61,4.5.86.56,1.82,1,2.74,1.46A14.9,14.9,0,0,1,68,85.42c-2.3-1.3-4.52-2.73-6.74-4.15a17.15,17.15,0,0,0-7.75-2.94c-.32,0-.64,0-.95,0,.07.24.15.33.25.36a32.07,32.07,0,0,1,7.74,3.53c2.62,1.6,5.3,3.1,8,4.64a1.52,1.52,0,0,0,.38.11l-.21.21a8.21,8.21,0,0,1-1-.33c-2.87-1.39-5.77-2.74-8.61-4.2-2.47-1.27-4.92-2.52-7.81-2.51a13.35,13.35,0,0,0-1.77.21l0,.23a1.82,1.82,0,0,0,.39.14,26.82,26.82,0,0,1,7.35,2.39c2.64,1.41,5.32,2.74,8,4.06,3,1.47,6.3,1.69,9.57,1.69a47.89,47.89,0,0,0,5.83-.64,11.81,11.81,0,0,0,1.42-.36c-2.21-.49-4.4-.67-6.5-1.19A15.59,15.59,0,0,1,69.75,83.65ZM36.91,70.36a2.84,2.84,0,0,0,.43.57q2.34,1.72,4.69,3.4a11.36,11.36,0,0,0,1.15.6c-.1-.38-.09-.53-.16-.59a38,38,0,0,0-3.27-2.66,17.24,17.24,0,0,0-2.86-1.3l1.35-.88,5.38,4.33.33-.38-5.09-4.28,3.62-2.7,4.71,3.93c-.5-2.26-2.7-3.14-3.73-4.81l2.08-2.41c.59-.69,1.19-1.36,1.78-2a10.42,10.42,0,0,0,.33,1.47A18,18,0,0,0,51,68.21a1.18,1.18,0,0,1-.9-.2c-1-1.19-1.95-2.41-2.93-3.61-.32-.39-.7-.73-1-1.1l-.2.19a15.86,15.86,0,0,0,4,5.41,1,1,0,0,1-.8-.07c-.95-.82-1.89-1.67-2.8-2.54-.41-.4-.74-.88-1.11-1.32l-.23.2a6,6,0,0,0,4.14,4.25,12.89,12.89,0,0,0-1.53,1.27c-.66.75-1.11.51-1.68-.09-1-1-2-2-3-3a3.21,3.21,0,0,0-.78-.41l-.19.24a6.44,6.44,0,0,0,.54.72c1.08,1.11,2.19,2.2,3.27,3.32.15.15.17.41.25.62a1.88,1.88,0,0,1-.74-.14c-.4-.28-.73-.65-1.11-1-1-.78-1.93-1.57-2.91-2.33-.12-.1-.34-.07-.52-.1.05.19,0,.43.16.55,1,.91,2,1.81,3,2.7.41.36.84.69,1.28,1l-.31.49c-1.24,1.82-2.53,3.61-3.72,5.46a9.75,9.75,0,0,0-1.46,4.69c-.11,1.64.52,2.38,2.17,2.8.16,0,.3.2.46.23.61.11,1.33.45,1.81.25a52.1,52.1,0,0,0,4.66-2.35.81.81,0,0,0,.26-.77.86.86,0,0,0-.78-.33,6.68,6.68,0,0,0-1.47.72c-1,.63-2,1.3-3,1.91a2.07,2.07,0,0,1-.78.15c5.56-6.89,13.09-11,21.17-14.27.68,2.27,3.26,5.93,4.52,6.43l-4.14-6.66,2.93-1.17a7.26,7.26,0,0,0,3.21-2.29,1.36,1.36,0,0,0,0-1.87c-.5-.4-1.07-.2-1.73.46A7.44,7.44,0,0,1,67,68.26c-2,1-4.13,1.76-6.15,2.71-6.66,3.14-13.19,6.47-17.75,12.45a8.29,8.29,0,0,1-1.17,1l-.31-.16A11.2,11.2,0,0,1,42,82.18a23,23,0,0,1,7.39-10.39c5.79-4.52,12.29-7.08,19.84-6.68.51,0,1,0,1.36,0l-1.32-2.62,0-.07a9.57,9.57,0,0,1-.51-8,27.72,27.72,0,0,0,1.43-4.1,3.67,3.67,0,0,1,2.42-3.26c2-.83,2-3,.12-4.15-1.09-.65-2.3-1.12-3.42-1.71-.21-.11-.46-.46-.42-.65a19.34,19.34,0,0,1,.69-2.82c.39-1.11.78-2.21,2.16-2.67a7,7,0,0,0,1.92-1.33c.49-.39.48-.9-.11-1.16a11.1,11.1,0,0,0-2.7-.94c-1.73-.29-3.49-.42-5.23-.58-6.31-.61-12.56,0-18.79.85a39.45,39.45,0,0,0-6.62,1.43,14,14,0,0,1-2.4.4l-.32-.49,1-.53a30.44,30.44,0,0,1,3.17-1.61,36.32,36.32,0,0,1,8.71-1.83c5.83-.67,11.66-1.06,17.5-.07,1.5.25,3,.42,4.5.71a2.51,2.51,0,0,1,2.28,1.94,3.47,3.47,0,0,0,.49.86,1.43,1.43,0,0,0,.2-2.18,6.89,6.89,0,0,0-3.41-2.14,41.89,41.89,0,0,0-11.71-1.76c-1.63-.05-3.25,0-4.87.13-4.69.33-9.44.68-13.89,2.28A12,12,0,0,0,36,32.34c-1,1.14-.41,2.14.13,3.21a1.8,1.8,0,0,0,1.81,1c1.51-.07,3-.28,4.52-.43,0,0,.06-.08.12-.17A2,2,0,0,0,42,35.7c-1.14-.07-2.27-.11-3.4-.19a2,2,0,0,1-.6-.24c.15-.19.29-.53.45-.54,1.21-.07,2.43-.09,3.64-.1.12,0,.25.14.35.24.78.75,1.59,1.49,2.32,2.29a24.56,24.56,0,0,1,1.77,2.19c.45.62.79,1.32,1.27,1.92.17.22.6.26.91.37.11-.34.39-.74.3-1-.72-2.24-1.75-4.29-4-5.48a11.73,11.73,0,0,1-1.21-.85C47,32.66,70.6,32.2,72.12,33.76l-1.51,1.08V33.69l-.26-.09a23.22,23.22,0,0,0-1.9,3.2,24.2,24.2,0,0,0-.91,3.73l-.7-.15c0-.39,0-.72,0-1.06l2-5.31a14.75,14.75,0,0,0-1.46,2.71,3.65,3.65,0,0,0-.49,2.62l-.61.91L64,39.54c.21-.15.52-.25.6-.44.34-.9.6-1.83.93-2.73s.68-1.76,1-2.63l-.24-.18a4.71,4.71,0,0,0-.71.7A10.47,10.47,0,0,0,64,39.55c-1,.24-.79-.41-.68-.89.35-1.46.76-2.9,1.12-4.36a3,3,0,0,0,0-.74l-.3-.05a8.46,8.46,0,0,0-1.37,6l-1.13-.11c-.29-2.21.77-4.1,1.28-6.14-.32.11-.64.24-.74.46a10.61,10.61,0,0,0-.93,2.37,29.25,29.25,0,0,0-.3,3.26c-1.23.11-1.21.11-1.32-1a19.23,19.23,0,0,0-.33-2.53,19.16,19.16,0,0,0-.75-2.21l-.35.11,1,5.85-.89,0c-.43-2-.13-4.11-1.26-5.92a46.11,46.11,0,0,0,.46,5.13c.07.58.13,1.13-.83.93-.19-2.13.2-4.33-.83-6.36-.39,2.17.16,4.31.22,6.52l-.85.19c-.17-1.47-.29-2.88-.5-4.28a3.12,3.12,0,0,0-.88-2.3l-.3.07,1,6.7-1.38.36c-.2-1.19-.32-2.3-.59-3.37a28,28,0,0,0-1.08-3c-.07-.18-.3-.3-.56-.53l1.6,6.72-.27.07-.56-1.65c-.52-1.53-1-3.06-1.56-4.58-.07-.19-.31-.32-.47-.48l-.17.19L51.79,41l-.15.18c-.21-.18-.51-.33-.6-.56-.35-.93-.61-1.89-.95-2.82A8,8,0,0,0,47.8,34.1l1.27,2.82-.21.11L46.12,34.5c0,.16-.08.3,0,.37,1.48,2.2,3.88,3.81,4.46,6.71-.51.24-1.17.61-1.86.87a10,10,0,0,0-5,4.28,3.38,3.38,0,0,0-.25.87l.3.22C45.33,46,47,44.3,49.24,43.5s4.53-1.49,6.83-2.12a19.09,19.09,0,0,1,7.15-.26,16.55,16.55,0,0,1,6.64,2.23,1.4,1.4,0,0,1-.53,0,56.12,56.12,0,0,0-7.88-.1c-3.85.46-7.64,1.39-11.45,2.1a12.15,12.15,0,0,0-6.87,3.81c-.13.13-.12.38-.18.58a1.65,1.65,0,0,0,.63.13,1.72,1.72,0,0,0,.6-.34,13.23,13.23,0,0,1,5.6-2.27,49.66,49.66,0,0,0,6.6-1.4,34.55,34.55,0,0,1,13.3-1,3.86,3.86,0,0,1,2.7,1.16l-2,1-1.1-1.22a1.66,1.66,0,0,0-.3,1,14.55,14.55,0,0,1-.85,5.09c-.82,2.68-1.78,5.37-1.09,8.25a2.36,2.36,0,0,1-.1.52c-.32-.4-.53-.64-.71-.9a29.28,29.28,0,0,1-4.31-11.25c-.2-1-.49-2.06-.74-3.08l-.3,0c-.12.18-.33.36-.34.55a7.71,7.71,0,0,0,.08,2c.38,1.6.82,3.19,1.32,4.75a21.83,21.83,0,0,0,5.74,9.8,5.74,5.74,0,0,1,.69,1l-.17.21c-.65-.07-1.31-.15-2-.19a20.11,20.11,0,0,0-7.88,1.24A1.15,1.15,0,0,1,57,64.35a40.23,40.23,0,0,0-2.53-3.16l-.23.17,3,3.7-.32.29c-1-.54-1.42-1.63-2.36-2.21a1.3,1.3,0,0,0,.27.58c.36.44.78.84,1.11,1.31.11.14,0,.42,0,.64a1.81,1.81,0,0,1-.76-.13,1.76,1.76,0,0,1-.43-.64,13.11,13.11,0,0,1-1.44-6.07c0-.6-.13-1.19-.79-1.23s-.68.66-.77,1.14a10.24,10.24,0,0,0,1.66,7.4c.11.18,0,.47,0,.7-.26-.09-.63-.11-.75-.29a11.29,11.29,0,0,1-1-1.81c-.5-1.18-.91-2.39-1.43-3.56a5.74,5.74,0,0,0-.81-1.13l-.26.15c0,.48.05,1,.12,1.44a13.63,13.63,0,0,0,2.28,5.29,2.28,2.28,0,0,1,.14.8c-.26-.16-.62-.26-.75-.49-1-1.75-1.86-3.53-2.83-5.27-.18-.33-.59-.54-.9-.8.9-.89,1.77-1.79,2.68-2.65.54-.5,1.15-.93,1.85-1.49a3.21,3.21,0,0,0-2.7.29,12.62,12.62,0,0,0-4,3.62c-2.89,3.78-6.21,7.07-11,8.94a18.47,18.47,0,0,0-6.37,4,5.38,5.38,0,0,1-2.25,1.23.68.68,0,0,1-.9-.76A7.49,7.49,0,0,1,25,72c1.14-2.72,3.41-4.4,6-5.74,1.65-.86,3.39-1.57,4.95-2.56,2.52-1.6,5-3.33,7.36-5.1s5.05-3,8.2-2.08a4.13,4.13,0,0,1,2.37,1.73c1.17,1.69,2.42,3.34,3.68,5a4,4,0,0,0,1.06.61C59.1,60.35,48.15,49.89,44.3,50l6.36,5.17-.24.29c-2.14-.65-3.15-2.78-5.09-3.73l3.35,3.4a1.1,1.1,0,0,1-1.55-.48,15,15,0,0,0-1.52-1.87c-.59-.62-1.24-1.18-1.87-1.76l-.24.24,3.65,4-.11.25c-.26-.08-.62-.09-.76-.27C45,53.58,43.76,52,42.5,50.37a8,8,0,0,0-.65-.65l-.29.25,4.29,5.66-.07.2c-.27-.09-.63-.11-.8-.29-.6-.66-1.14-1.37-1.69-2.06-.82-1-1.62-2.08-2.46-3.1a2.7,2.7,0,0,0-.71-.41l-.11.16,4.7,6.06c-.44.18-.77.63-1.21,0q-1.83-2.51-3.7-5a9.56,9.56,0,0,0-.91-.89c1,2.55,3.23,4.2,4.34,6.63a1.16,1.16,0,0,1-.71-.4c-1.12-1.45-2.23-2.92-3.35-4.37a2.53,2.53,0,0,0-1.74-1.15l5,6.32a1.69,1.69,0,0,1-1-.54c-.58-.67-1.09-1.4-1.64-2.1a8.26,8.26,0,0,0-3.31-2.66l5.26,5.77a2.44,2.44,0,0,1-.41.5c-1.57,1.13-3.14,2.28-4.74,3.38a25.94,25.94,0,0,1-3.65,2.1,28.14,28.14,0,0,0-7,4.43,7.58,7.58,0,0,0-3,6,2.39,2.39,0,0,0,3,2.36,27.6,27.6,0,0,0,7-2.49,3.2,3.2,0,0,0,.71-.67l-.24-.36-4.78,2a39.3,39.3,0,0,1,3.81-2.34,1.06,1.06,0,0,1,.82,0c1.51.69,3,1.42,4.5,2.16a5.87,5.87,0,0,1,.88.67,1.23,1.23,0,0,1-.32.11,1.38,1.38,0,0,1-.35,0,18.82,18.82,0,0,0-13.54,2.77,11.27,11.27,0,0,0-3.44,3.26,7.71,7.71,0,0,0-1.74,4.45A2.39,2.39,0,0,0,22,88.71a11.38,11.38,0,0,1,1.29.1A14.92,14.92,0,0,0,26.9,89c2.37-.44,4.69-1.16,7-1.79.54-.14,1.23-.33,1-1s-.91-.36-1.44-.3a.19.19,0,0,1-.08,0c-1.53.47-3,1-4.6,1.37a27.93,27.93,0,0,1-3,.49c0-.24.08-.31.15-.34a32.08,32.08,0,0,1,9.27-2.75,11.8,11.8,0,0,0,2-.27c.32-.1.55-.5.81-.76a8.53,8.53,0,0,0-.83-.62,1.07,1.07,0,0,0-.51,0,30.38,30.38,0,0,0-9.26,2.18c-1.62.64-3.23,1.32-4.9,1.83-1.4.41-2.09-.22-1.62-1.55a11.33,11.33,0,0,1,2-3.64,15.42,15.42,0,0,1,12.38-5.37c1.49,0,3,0,4.48,0a2.94,2.94,0,0,0,.91-.33,3.37,3.37,0,0,0-.53-.8A18.31,18.31,0,0,0,33.69,72Zm50.86,3.76-1.64-1-.15.2a1.83,1.83,0,0,0,.45.39A2.62,2.62,0,0,1,88,76.15c.14,1.78.22,3.56.32,5.31-2.09,1-3,1.89-3,3,3-2.25,5.4-2.52,5.9-.64-1.74.18-3.67-.52-5,.93a3.64,3.64,0,0,1,.3,1.43,3.82,3.82,0,0,0,1.31,3.69c.58.44,1,.32,1.23-.28.53-1.17,1.07-2.33,1.55-3.52a3,3,0,0,0,.08-1l-.24,0-1.15,2.7-.2-.06L89.11,85l-.35,0-.42,2.12c0-.63,0-1.15-.13-1.65,0-.17-.23-.31-.36-.46-.11.16-.3.32-.31.5a11.86,11.86,0,0,0,0,1.19c0,.21,0,.42-.06.63h-.33c0-.58,0-1.16-.11-1.73-.07-.79.33-1.08,1.09-1.06s1.58,0,2.37,0c1.61.06,1.2-.28,1.73,1.29a3.62,3.62,0,0,1-2.78,4.75,5.13,5.13,0,0,0-2.15,1.32c-.21.18,0,.8,0,1.21a6.8,6.8,0,0,0,1.11-.34c.34-.17.49-.8,1-.36s.9.95.53,1.55a3.35,3.35,0,0,1-2.87,1.85c-1.23,0-2.34-.23-2.9-1.48a2.92,2.92,0,0,0-.41-.5c-.12.24-.26.39-.24.52a2.16,2.16,0,0,1-.86,1.94c-1,.9-2.07,1.74-3.13,2.57-.45.36-1,.66-1.44,1l.16.21A10.19,10.19,0,0,0,84,95.86.69.69,0,0,1,84.1,97a38.19,38.19,0,0,1-3,3.09,8.6,8.6,0,0,1-2.36,1.2,12.94,12.94,0,0,1-1.88.48l0,.28a15.44,15.44,0,0,0,1.67-.08c3-.46,5-2.29,6.63-4.52.36-.49.65-.63,1.13-.4-2.68,4-6.75,5.81-11.24,7.09a15,15,0,0,0,3.5-.53,15.77,15.77,0,0,0,5.89-3.08c1.06-.93,1.89-2.09,2.87-3.1a5.08,5.08,0,0,1,1.28-.63,5.68,5.68,0,0,1-.62,3.38,10.39,10.39,0,0,1-5.2,4.26,16.71,16.71,0,0,1-8.35.93l-1.71-.17a4.28,4.28,0,0,0,3,1.5,18,18,0,0,0,6.33-.68c.42-.11.85-.18,1.28-.28l.12.26a13.53,13.53,0,0,1-1.94,1.39,22.62,22.62,0,0,1-3.58,1.33,72.36,72.36,0,0,0-10.4,3.33c-1.69.74-3.41,1.42-5.12,2.12l2.86-6.5a3.3,3.3,0,0,0,2.83-.07,20.81,20.81,0,0,0,3-1.57c2.57-1.79,5.13-3.63,6.78-6.33a4.9,4.9,0,0,1,2.57-2.21,6.46,6.46,0,0,0,1.78-1.47,1.83,1.83,0,0,0,.29-.51l-.4-.34a3.73,3.73,0,0,1-.65,1,6.09,6.09,0,0,1-2,1.29,3.82,3.82,0,0,0-2.71,1.89,5.16,5.16,0,0,1-1.24,1.32c-1.6,1.33-3.16,2.71-4.87,3.91A15.27,15.27,0,0,1,67,106.46c-1.18.42-1.79-.15-1.7-1.38a9.63,9.63,0,0,1,.36-1.57c.13-.56.25-1.12.38-1.68a3.66,3.66,0,0,0-1.85,2.67,32,32,0,0,1-.91,4,42.9,42.9,0,0,1-2.12,4.76c-.29.58-.77,1.41-1.51,1.14-.42-.16-.69-1.06-.78-1.66a13,13,0,0,1,.73-5.2A5.14,5.14,0,0,1,61,105.29a12.44,12.44,0,0,0,1.56-2.15c.12-.2,0-.52.05-.78-.25,0-.57-.06-.74.06a7.3,7.3,0,0,0-1.21,1.08c-.93,1-1.8,2.09-2.74,3.1-.54.58-.83.5-1.12-.21a4.65,4.65,0,0,1,0-3.57c.51-1.35.57-1.41,2-1.12a4.78,4.78,0,0,0,.53.06,32,32,0,0,0,10.4-1.26,66,66,0,0,0,6.5-2.29,14.77,14.77,0,0,0,5.15-2.84,15.14,15.14,0,0,0,1-1.23,3.31,3.31,0,0,0-.6,0,1.23,1.23,0,0,0-.41.13A23.87,23.87,0,0,1,74.77,96c-4.77.9-9.43.08-14.1-.72L57,94.68,57,95c1.81,1.07,3.91,1.2,5.93,1.51a45.88,45.88,0,0,0,6.19.52c2.07,0,4.13-.17,6.08-.26A19.22,19.22,0,0,1,69,98.2a28.83,28.83,0,0,1-11.28-1.73,13.05,13.05,0,0,0-1.9-.39l-.08.33c2.59,2.09,5.93,1.94,9,2.66-3.42.6-6.69-.12-10-1,2.29,1.81,5.08,1.72,7.79,2-3,.78-5.92-.08-8.82-.88l-.1.32,2,1.5-4.55,5-.27-.18a9.81,9.81,0,0,1,.25-1,45.28,45.28,0,0,1,4.83-10.19c1.17-1.73,2.46-3.39,3.62-5.13.2-.28,0-.8,0-1.21a3.08,3.08,0,0,0-1.14.39,15.15,15.15,0,0,0-1.51,1.77,38.5,38.5,0,0,0-6.38,12c-.39,1.23-.79,2.47-1.19,3.7a8.11,8.11,0,0,1-.59-4.68c.45-5.43,3.09-9.8,7.1-13.53a5.35,5.35,0,0,0-1.69.78,14.37,14.37,0,0,0-4.57,5.54c-.73,1.64-2.49,1.9-3.52,3.08,1.28-2.51,3.24-4.51,5-6.67a1.86,1.86,0,0,0-1,.43c-1.37,1.4-2.69,2.84-4.06,4.24a12.89,12.89,0,0,1-2,1.73c-.57.39-1.06.13-1.05-.56a8.75,8.75,0,0,1,.34-2.33c.44-1.55,1.69-2.57,2.76-3.69A1.4,1.4,0,0,1,46.9,90c1.2-.08,2.4-.08,3.6-.13a2.21,2.21,0,0,0,2.09-1.06,2.6,2.6,0,0,0-2.1-.83c-.94,0-1.88.06-2.81,0a59.48,59.48,0,0,1-6.12-.38,10.46,10.46,0,0,1-4.75-2c-.25-.18-.67-.13-1-.19a3.56,3.56,0,0,0,.12.94,2,2,0,0,0,.61.72,11.1,11.1,0,0,0,5.94,2.5c1,.09,2,.26,3,.39a6.8,6.8,0,0,0-3.94,5.39c-.18,1.12-.17,2.28.94,3a3.11,3.11,0,0,0,3.68.16c.63-.43,1.28-.83,2.08-1.34-.1.4-.14.62-.21.82a13.87,13.87,0,0,0-.76,5.63,17.17,17.17,0,0,0,.6,3.26,1.25,1.25,0,0,0,1.88.92,30.67,30.67,0,0,0,3.2-2.07,28.47,28.47,0,0,0,2.24-2.08,11.83,11.83,0,0,0,0,2.45,3.86,3.86,0,0,0,1,2c.42.39,1.25.36,1.94.53-.06.22-.18.63-.28,1a7.28,7.28,0,0,0,.07,5,1.84,1.84,0,0,0,2.76,1,2.78,2.78,0,0,1,.4-.16,37.19,37.19,0,0,0,4.35-1.19,61.41,61.41,0,0,1,10.74-3.11c2.93-.61,5.81-1.44,8-3.55a6,6,0,0,0,1.57-2.2,1.73,1.73,0,0,1,.81-1.14,4.89,4.89,0,0,0,.64-.45c2.32-1.92,3.63-4.2,2.92-7.28a1.2,1.2,0,0,1,.37-.83c1.42-1.53,1.52-2.42.41-4.2.15-.13.31-.25.45-.39,1.91-2,2.73-3.91,1-6.4a.55.55,0,0,1-.09-.46,1.51,1.51,0,0,0-.78-2,25.49,25.49,0,0,0-2.85-1.19c.09-2.24.19-4.71-1-7a5,5,0,0,1,.69.59,9.92,9.92,0,0,1,1.63,4.25c.17.83.3,1.67.48,2.71,1.2-1.77-1.13-7.81-2.93-8.15ZM81.08,63.77c-.5.73-1.22,1.35-1,2.38l1.15-1.57-.09.37,2.12,1.45-.15.18c-.82-.15-1.7-.78-2.43,0A1.79,1.79,0,0,0,81,68.91a8,8,0,0,1,.14-1.49.84.84,0,0,1,1.5-.09c-1.1.13-1.26.38-.85,1.11l2.64-.65,3.72,2.69L88,70.7c-.59-.23-1.17-.49-1.77-.68-3-1-6.14-.69-9.24-.69-.43,0-.87.41-1.37.65a5,5,0,0,0-.72-.79,1.47,1.47,0,0,0-.91-.36,3,3,0,0,0-1.82,2.28,4.39,4.39,0,0,0,1.33,3,11.52,11.52,0,0,1,1,1.18c-1.48.48-3,.08-4.64-.08a8,8,0,0,0,2.29,1.3c1.62.53,3.17,0,4.7-.53,1.73-.57,3.41-1.37,5.33-1.18a2.17,2.17,0,0,1,2.27,2.31,3,3,0,0,0,0,.85,6.24,6.24,0,0,0,.58,1c.31-.3.79-.55.9-.91A3.84,3.84,0,0,0,84,73.74a6.61,6.61,0,0,0-6.07.35c-1.45.7-1.63.78-2.87-.18a3.24,3.24,0,0,1-1.48-2.41,2.62,2.62,0,0,1,.34-.94,3.13,3.13,0,0,1,.7.59c.51.76.91,1.59,1.45,2.32s1.12.67,1.53.14l-1.74-2.43c1,0,1.81,0,2.59,0,1,0,2-.16,3-.18a10.7,10.7,0,0,1,6.65,1.75c2.75,2,4.32,4.44,3.57,7.9,0,.23,0,.46-.08.86a3.29,3.29,0,0,0,1.56-3c-.07-2.45-1.33-4.36-2.94-6.12a2.21,2.21,0,0,1-.4-.83A8.61,8.61,0,0,0,89.37,70a4,4,0,0,0-1.13-1.18c-1.77-1.28-3.56-2.53-5.35-3.79l.24-.09c-.07-.42,0-1-.24-1.23-.94-1.05-2.06-1.79-3.61-1.06l-1.34-2.68c1.32-.72,1.63-1.62,1-2.92a5.51,5.51,0,0,0-6.67-2.52,4.11,4.11,0,0,0-1.51,1.21c-.13.13,0,.49,0,.75.24,0,.54,0,.71-.11a4.46,4.46,0,0,1,4.67-.13,4.3,4.3,0,0,1,1.56,1.41c.44.65.09,1.09-.73,1s-1.84-.34-2.76-.46-2-.19-3-.28l-.09.39a14.52,14.52,0,0,0,2.08.62c2.4.35,4.14,1.42,4.73,3.84a4.68,4.68,0,0,1,0,1c-.34-.05-.77,0-1-.15-2.06-1.71-4.09-3.46-6.11-5.21-.57-.49-1.08-1-1.62-1.56-.18.25-.23.39-.18.46a23.46,23.46,0,0,0,2.71,3.44c2.25,2,4.68,3.81,7,5.69a2.62,2.62,0,0,0,.44.25c-.13-1-1.28-2.08.2-2.89A1.46,1.46,0,0,1,81.08,63.77Zm-49.36.14-.09-.51a4.64,4.64,0,0,0-1.54,0c-2.53.94-5,2-7.55,3a13.53,13.53,0,0,1-1.95.75c-1,.22-1.52-.26-1.33-1.2a7.94,7.94,0,0,1,.94-2.54c1.62-2.65,4.32-3.92,7.15-4.94a21.65,21.65,0,0,1,12.94-.53,7.87,7.87,0,0,0,1.2.12c-.55-.62-1.2-1-1.7-1.53-.88-.93-1.67-2-2.52-2.92a3.18,3.18,0,0,0-.71-.45l-.06.12,2.54,3C38,56.33,38,55.51,37.62,55c-.54-.77-.91-1-1.6-.87l1.34,1.72-.13.22c-.48-.1-1.23-.06-1.4-.35a2.56,2.56,0,0,1-.41-2.5c1-2.3,3-3.15,5.34-3.65.6-.13,1.21-.19,1.81-.28l0-.21h-3.9l0-.17,4.25-.85c-2.73-.94-5.64-.36-8,2.74-1.65-1.08-3-2.65-5.2-2.82L34.7,51.3l-.46,1.17L29,49.18a8.45,8.45,0,0,0,4.09,3c.79.32,1.19.68,1.05,1.55a2.87,2.87,0,0,0,.24,1c.1.37.18.75.29,1.2A50.86,50.86,0,0,0,30,52.43a8.93,8.93,0,0,0-3.41-.85c-.35,0-.78.59-1.17.92a4,4,0,0,0,1.2.5c2.46.09,4.37,1.32,6.21,2.72,0,0,0,.1,0,.21A20.7,20.7,0,0,0,23,58.79c-2.51,1.43-4.49,3.31-5.13,6.18a3.09,3.09,0,0,0,.56,3.14,5.25,5.25,0,0,0,5.75,1,4.85,4.85,0,0,0,1.05-.84l-.14-.19h-2.5l0-.16Zm-2-18.86.08.16c-1.74,1.76-3.5,3.49-5.19,5.29-1.06,1.13-2,2.35-3,3.55a1.19,1.19,0,0,0-.12,1.57c.42.56,1,.38,1.52.2,1.34-.47,2.68-1,4-1.47.24-.09.39-.41.58-.63-.3,0-.64-.22-.9-.14-1.34.41-2.66.88-4.06,1.36a5.33,5.33,0,0,1,.33-.45,54.77,54.77,0,0,1,10.18-9.82C37,42,41.09,40.23,45.93,40.6c.65,0,.89.3.86.89s0,1,0,1.66c.75-1,.46-2.57-.38-2.86a9.13,9.13,0,0,0-2.2-.5,24.7,24.7,0,0,0-11.2,2A38.23,38.23,0,0,0,21.78,49a11.94,11.94,0,0,0-3.69,5.31,2.6,2.6,0,0,0,.37,2.51,1.1,1.1,0,0,0,1.49.32A1.69,1.69,0,0,0,20.72,56c0-.29-.49-.62-.77-.94l-.37.05a14.47,14.47,0,0,1,1-2.26,22.55,22.55,0,0,1,5.28-5.08C27.15,46.84,28.46,46,29.75,45.05ZM48,82.67a15.74,15.74,0,0,1,1.59.47c4.09,1.76,8.17,3.52,12.24,5.32,3.37,1.49,6.63,3.29,10.37,3.8,2.66.35,5.29.22,7.58-1.35a8.5,8.5,0,0,0,1.5-1.7l-.25-.3c-.92.32-1.86.59-2.74,1a9.85,9.85,0,0,1-5.3.83A19.51,19.51,0,0,1,67.1,89C63.55,87.37,60,85.67,56.48,84a17.26,17.26,0,0,0-7.34-2.09C48.63,81.89,48.12,81.85,48,82.67Zm37.48-3.2a5.46,5.46,0,0,0-1.19.29,12.74,12.74,0,0,1-9.82.46c-3-.94-5-2.84-5.33-6.09-.08-.87-.17-1.74-.31-2.61,0-.22-.25-.43-.38-.64-.18.24-.48.46-.51.72a9.73,9.73,0,0,0-.15,2.68,9.84,9.84,0,0,0,5.15,7,14.36,14.36,0,0,0,6.47,1.6,7,7,0,0,0,5-1.25A2.17,2.17,0,0,0,85.45,79.47ZM55.54,55.05l-.16.15c-2.41-2-4.45-4.54-7.69-5.45a1.79,1.79,0,0,0,.58.64c1.33,1,2.74,1.85,4,2.89a42.75,42.75,0,0,1,7.78,8.62c.46.66.83,1.47,1.89,1.33.13,0,.36,0,.37,0a.58.58,0,0,0,0-.45,12.58,12.58,0,0,0-1-1.69c-1.66-2.23-3.29-4.49-5-6.65-1.32-1.62-2.8-3.12-4.27-4.62a4.74,4.74,0,0,0-1.36-.71l-.25.32Q53,52.21,55.54,55.05Zm26,37,0-.35c-.22,0-.45,0-.67.09-1.92.35-3.83.78-5.76,1a21.11,21.11,0,0,1-11.23-2c-.92-.39-1.9-.65-2.94-1,.42,1.42,3.33,2.82,7.73,3.77A19.9,19.9,0,0,0,81.5,92Zm-23.07.15-.1.28c2.85,3.08,18.38,4.16,21.2,1.43a3.35,3.35,0,0,0-.82.08,18.18,18.18,0,0,1-6,.82A36.61,36.61,0,0,1,61.59,93C60.56,92.62,59.48,92.44,58.43,92.19Zm.11-46.29c-.91,2.42,5.19,14.29,8.23,16.23l-1.18-1.69C63.17,57,61.71,53.1,60.15,49.25,59.71,48.17,59.14,47.14,58.54,45.9Zm5.23,17c.2-2.53-8.56-14.37-11-15A7.77,7.77,0,0,0,54,49.77,53.35,53.35,0,0,1,62.56,61C62.93,61.68,63.37,62.28,63.77,62.91Zm1.68.06.23-.18-9.79-16c0,.38,0,.48,0,.59a8,8,0,0,0,1.72,4c2.37,3.57,4.77,7.12,7.16,10.68C64.94,62.43,65.21,62.69,65.45,63Zm15,30.43c.29.22.45.44.57.42a26,26,0,0,0,3.52-.65c.32-.1.45-.84.67-1.28a5.33,5.33,0,0,0,.31-.51c0-.14.09-.37,0-.46a6.78,6.78,0,0,0-2.76-2.41l.33,1.14a2.42,2.42,0,0,0-.48-.16c-.26,0-.53,0-.8,0a3,3,0,0,0,.51.68,7.68,7.68,0,0,0,1.08.64,2.84,2.84,0,0,1-1.08,0c-.33,0-.67,0-1,0l-.09.38,2.84,1.15ZM66.61,45.82c-1.18.82-1.23,8.44,0,9.92ZM64.07,45c-1.58,1.24-.21,10.57,1.53,12.12-.29-.85-.59-1.67-.85-2.5-.69-2.15-.51-4.38-.55-6.58C64.19,47,64.12,46.09,64.07,45Zm12,59.8a8.49,8.49,0,0,0,4.64-.17c2.64-.76,4.63-2.57,6.73-4.2.22-.17.23-.62.34-.94l-.23-.09c-.71.57-1.48,1.09-2.13,1.72A11.85,11.85,0,0,1,76.09,104.75Zm-9.3-49.37c1.09-2,1.51-8.39.74-9.31-.11.14-.28.26-.29.39-.2,2.71-.38,5.41-.55,8.12A3.58,3.58,0,0,0,66.79,55.38Zm17.3,17.2-.15.26c.13.09.26.18.38.28,1.24,1,2.46,2.1,2.72,3.73a31.55,31.55,0,0,1,.15,3.65,1.56,1.56,0,0,0,.19.49c.14-.14.38-.28.39-.43,0-.71,0-1.43,0-2.13.19-2.2-.91-3.81-2.48-5.19A5.32,5.32,0,0,0,84.09,72.58ZM60.74,32.85c-.67,1.27-.79,5.28-.22,5.91C61.06,38.07,61.25,33.65,60.74,32.85ZM42.67,75.71l.13-.15c-.07-.11-.12-.26-.23-.32q-3-1.83-6-3.63c-.12-.07-.33,0-.63,0,1.59,1,3,1.93,4.47,2.82C41.15,74.91,41.92,75.3,42.67,75.71ZM40.13,42c-.73,1.31.54,4.51,1.78,4.82ZM43,47.4a17.27,17.27,0,0,0-1.11-5.22A8.57,8.57,0,0,0,43,47.4Zm-9.52,6.75.12-.2c-1.54-1.19-3.08-2.41-4.64-3.58a1.25,1.25,0,0,0-1.58-.12C29.89,50.85,31.22,53.18,33.46,54.15ZM52.73,33.83l1.17,5.61C54.57,37.9,53.8,34.55,52.73,33.83Zm15.38.27c-1.25.65-2.35,4.22-1.66,5ZM39.5,47l-2.78-3.49C36.55,44.6,38.15,46.77,39.5,47Zm-4.36,2.82c-.77-1.28-3.1-2.73-3.89-2.39C32.65,48,33.38,49.52,35.14,49.77Zm9.64-4.91c.46-1.21,0-2.45.28-3.81C44.15,41.56,44.08,43.25,44.78,44.86Zm-1,.81a14.58,14.58,0,0,0-.38-4.05C42.74,42.49,43,44.87,43.79,45.67ZM35.59,44A3.54,3.54,0,0,0,38,47.58Zm.15,4.71-2.81-3.3A4.13,4.13,0,0,0,35.74,48.72Zm5.08-1.62-1.69-3.57C38.87,44.89,39.92,46.92,40.82,47.1ZM91.33,88.71l.34-3.55C91,85.76,90.7,88.21,91.33,88.71ZM33.82,45.81l2.4,2.1A2.55,2.55,0,0,0,33.82,45.81ZM46,41.21h-.32l.19,2.63A2,2,0,0,0,46,41.21Z"/><path class="cls-2" d="M47.29,61.17c.31.26.72.47.9.8,1,1.74,1.87,3.52,2.83,5.27.13.23.49.33.75.49a2.28,2.28,0,0,0-.14-.8,13.63,13.63,0,0,1-2.28-5.29c-.07-.48-.08-1-.12-1.44l.26-.15a5.74,5.74,0,0,1,.81,1.13c.52,1.17.93,2.38,1.43,3.56a11.29,11.29,0,0,0,1,1.81c.12.18.49.2.75.29,0-.23.08-.52,0-.7a10.24,10.24,0,0,1-1.66-7.4c.09-.48,0-1.18.77-1.14s.77.63.79,1.23a13.11,13.11,0,0,0,1.44,6.07,1.76,1.76,0,0,0,.43.64,1.81,1.81,0,0,0,.76.13c0-.22.09-.5,0-.64-.33-.47-.75-.87-1.11-1.31a1.3,1.3,0,0,1-.27-.58c.94.58,1.41,1.67,2.36,2.21l.32-.29-3-3.7.23-.17c.84,1,1.75,2,2.5,3.1a1.22,1.22,0,0,0,1.44.45,20.17,20.17,0,0,1,7.82-1.22c.66,0,1.32.12,2,.19l.17-.21a5.74,5.74,0,0,0-.69-1,21.83,21.83,0,0,1-5.74-9.8c-.5-1.56-.94-3.15-1.32-4.75a7.71,7.71,0,0,1-.08-2c0-.19.22-.37.34-.55l.3,0c.25,1,.54,2,.74,3.08a29.28,29.28,0,0,0,4.31,11.25c.18.26.39.5.71.9a2.36,2.36,0,0,0,.1-.52c-.69-2.88.27-5.57,1.09-8.25A14.55,14.55,0,0,0,69,46.78a1.66,1.66,0,0,1,.3-1l1.1,1.22,2-1a3.86,3.86,0,0,0-2.7-1.16,34.64,34.64,0,0,0-13.05.91,69.13,69.13,0,0,1-7.11,1.51,13.24,13.24,0,0,0-5.34,2.23,1.72,1.72,0,0,1-.6.34,1.65,1.65,0,0,1-.63-.13c.06-.2,0-.45.18-.58A12.15,12.15,0,0,1,50,45.4c3.81-.71,7.6-1.64,11.45-2.1a56.12,56.12,0,0,1,7.88.1,1.4,1.4,0,0,0,.53,0,16.55,16.55,0,0,0-6.64-2.23,19.09,19.09,0,0,0-7.15.26c-2.3.63-4.58,1.33-6.83,2.12S45.33,46,43.78,47.82l-.3-.22a3.38,3.38,0,0,1,.25-.87,10,10,0,0,1,5-4.28c.69-.26,1.35-.63,1.86-.87-.58-2.9-3-4.51-4.46-6.71,0-.07,0-.21,0-.37L48.86,37l.21-.11L47.8,34.1a8,8,0,0,1,2.29,3.74c.34.93.6,1.89.95,2.82.09.23.39.38.6.56l.15-.18L49.52,34l.17-.19c.16.16.4.29.47.48.54,1.52,1,3,1.56,4.58l.56,1.65.27-.07L51,33.69c.26.23.49.35.56.53a28,28,0,0,1,1.08,3c.27,1.07.39,2.18.59,3.37l1.38-.36-1-6.7.3-.07a3.12,3.12,0,0,1,.88,2.3c.21,1.4.33,2.81.5,4.28l.85-.19c-.06-2.21-.61-4.35-.22-6.52,1,2,.64,4.23.83,6.36,1,.2.9-.35.83-.93A46.11,46.11,0,0,1,57,33.66c1.13,1.81.83,3.9,1.26,5.92l.89,0-1-5.85.35-.11a19.16,19.16,0,0,1,.75,2.21,19.23,19.23,0,0,1,.33,2.53c.11,1.15.09,1.15,1.32,1a29.25,29.25,0,0,1,.3-3.26,10.61,10.61,0,0,1,.93-2.37c.1-.22.42-.35.74-.46-.51,2-1.57,3.93-1.28,6.14l1.13.11a8.46,8.46,0,0,1,1.37-6l.3.05a3,3,0,0,1,0,.74c-.36,1.46-.77,2.9-1.12,4.36-.11.48-.29,1.13.68.89h0l2.35.71.61-.91v0l-.06,1.06.7.15a24.2,24.2,0,0,1,.91-3.73,23.22,23.22,0,0,1,1.9-3.2l.26.09v1.15l1.51-1.08c-1.52-1.56-25.1-1.1-28.29.53a11.73,11.73,0,0,0,1.21.85c2.26,1.19,3.29,3.24,4,5.48.09.28-.19.68-.3,1-.31-.11-.74-.15-.91-.37-.48-.6-.82-1.3-1.27-1.92a24.56,24.56,0,0,0-1.77-2.19c-.73-.8-1.54-1.54-2.32-2.29-.1-.1-.23-.24-.35-.24-1.21,0-2.43,0-3.64.1-.16,0-.3.35-.45.54a2,2,0,0,0,.6.24c1.13.08,2.26.12,3.4.19a2,2,0,0,1,.56.21c-.06.09-.09.17-.12.17-1.51.15-3,.36-4.52.43a1.8,1.8,0,0,1-1.81-1c-.54-1.07-1.1-2.07-.13-3.21A12,12,0,0,1,41.36,29c4.39-1.58,9.07-1.94,13.7-2.27,1.75-.12,3.5-.19,5.25-.14a41.67,41.67,0,0,1,11.52,1.76,6.89,6.89,0,0,1,3.41,2.14A1.43,1.43,0,0,1,75,32.7a3.47,3.47,0,0,1-.49-.86,2.51,2.51,0,0,0-2.28-1.94c-1.49-.29-3-.46-4.5-.71-5.84-1-11.67-.6-17.5.07a36.32,36.32,0,0,0-8.71,1.83,30.44,30.44,0,0,0-3.17,1.61l-1,.53.32.49a19,19,0,0,0,2.14-.32A58.35,58.35,0,0,1,47,31.86,81.38,81.38,0,0,1,65.54,31c1.74.16,3.5.29,5.23.58a11.1,11.1,0,0,1,2.7.94c.59.26.6.77.11,1.16a7,7,0,0,1-1.92,1.33c-1.38.46-1.77,1.56-2.16,2.67a19.34,19.34,0,0,0-.69,2.82c0,.19.21.54.42.65,1.12.59,2.33,1.06,3.42,1.71,1.89,1.13,1.9,3.32-.12,4.15a3.67,3.67,0,0,0-2.42,3.26,27.72,27.72,0,0,1-1.43,4.1,9.57,9.57,0,0,0,.51,8l0,.07,1.32,2.62c-.34,0-.85,0-1.36,0-7.55-.4-14,2.16-19.84,6.68A23,23,0,0,0,42,82.18a11.2,11.2,0,0,0-.35,2.11l.31.16a8.29,8.29,0,0,0,1.17-1c4.56-6,11.09-9.31,17.75-12.45,2-1,4.13-1.74,6.15-2.71a7.44,7.44,0,0,0,1.88-1.49c.66-.66,1.23-.86,1.73-.46a1.36,1.36,0,0,1,0,1.87,7.26,7.26,0,0,1-3.21,2.29l-2.93,1.17,4.14,6.66c-1.26-.5-3.84-4.16-4.52-6.43C56,75.19,48.49,79.25,42.93,86.14a2.07,2.07,0,0,0,.78-.15c1-.61,2-1.28,3-1.91a6.68,6.68,0,0,1,1.47-.72.86.86,0,0,1,.78.33.81.81,0,0,1-.26.77,52.1,52.1,0,0,1-4.66,2.35c-.48.2-1.2-.14-1.81-.25-.16,0-.3-.18-.46-.23-1.65-.42-2.28-1.16-2.17-2.8a9.75,9.75,0,0,1,1.46-4.69c1.19-1.85,2.48-3.64,3.72-5.46l.31-.49c-.44-.36-.87-.69-1.28-1-1-.89-2-1.79-3-2.7-.12-.12-.11-.36-.16-.55.18,0,.4,0,.52.1,1,.76,2,1.55,2.91,2.33.38.32.71.69,1.11,1a1.88,1.88,0,0,0,.74.14c-.08-.21-.1-.47-.25-.62-1.08-1.12-2.19-2.21-3.27-3.32a6.44,6.44,0,0,1-.54-.72l.19-.24a3.21,3.21,0,0,1,.78.41c1,1,2,1.94,3,3,.57.6,1,.84,1.68.09a12.89,12.89,0,0,1,1.53-1.27,6,6,0,0,1-4.14-4.25l.23-.2c.37.44.7.92,1.11,1.32.91.87,1.85,1.72,2.8,2.54a1,1,0,0,0,.8.07,15.86,15.86,0,0,1-4-5.41l.2-.19c.35.37.73.71,1,1.1,1,1.2,1.93,2.42,2.93,3.61a1.18,1.18,0,0,0,.9.2,18,18,0,0,1-3.33-5.6,10.42,10.42,0,0,1-.33-1.47Z"/><path class="cls-2" d="M87.74,74.09c1.2,2.29,1.1,4.76,1,7a25.49,25.49,0,0,1,2.85,1.19,1.51,1.51,0,0,1,.78,2,.55.55,0,0,0,.09.46c1.7,2.49.88,4.36-1,6.4-.14.14-.3.26-.45.39,1.11,1.78,1,2.67-.41,4.2a1.2,1.2,0,0,0-.37.83c.71,3.08-.6,5.36-2.92,7.28a4.89,4.89,0,0,1-.64.45,1.73,1.73,0,0,0-.81,1.14,6,6,0,0,1-1.57,2.2c-2.22,2.11-5.1,2.94-8,3.55a61.41,61.41,0,0,0-10.74,3.11,37.19,37.19,0,0,1-4.35,1.19,2.78,2.78,0,0,0-.4.16,1.84,1.84,0,0,1-2.76-1,7.28,7.28,0,0,1-.07-5c.1-.41.22-.82.28-1-.69-.17-1.52-.14-1.94-.53a3.86,3.86,0,0,1-1-2,11.83,11.83,0,0,1,0-2.45A28.47,28.47,0,0,1,53,105.64a30.67,30.67,0,0,1-3.2,2.07,1.25,1.25,0,0,1-1.88-.92,17.17,17.17,0,0,1-.6-3.26,13.87,13.87,0,0,1,.76-5.63c.07-.2.11-.42.21-.82-.8.51-1.45.91-2.08,1.34a3.11,3.11,0,0,1-3.68-.16c-1.11-.71-1.12-1.87-.94-3a6.8,6.8,0,0,1,3.94-5.39c-1-.13-2-.3-3-.39A11.1,11.1,0,0,1,36.53,87a2,2,0,0,1-.61-.72,3.56,3.56,0,0,1-.12-.94c.34.06.76,0,1,.19a10.46,10.46,0,0,0,4.75,2,59.48,59.48,0,0,0,6.12.38c.93,0,1.87,0,2.81,0a2.6,2.6,0,0,1,2.1.83,2.21,2.21,0,0,1-2.09,1.06c-1.2.05-2.4.05-3.6.13a1.4,1.4,0,0,0-.83.41c-1.07,1.12-2.32,2.14-2.76,3.69A8.75,8.75,0,0,0,43,96.38c0,.69.48,1,1.05.56a12.89,12.89,0,0,0,2-1.73c1.37-1.4,2.69-2.84,4.06-4.24a1.86,1.86,0,0,1,1-.43c-1.8,2.16-3.76,4.16-5,6.67,1-1.18,2.79-1.44,3.52-3.08a14.37,14.37,0,0,1,4.57-5.54,5.35,5.35,0,0,1,1.69-.78c-4,3.73-6.65,8.1-7.1,13.53a8.11,8.11,0,0,0,.59,4.68c.4-1.23.8-2.47,1.19-3.7a38.5,38.5,0,0,1,6.38-12,15.15,15.15,0,0,1,1.51-1.77,3.08,3.08,0,0,1,1.14-.39c0,.41.18.93,0,1.21-1.16,1.74-2.45,3.4-3.62,5.13a45.28,45.28,0,0,0-4.83,10.19,9.81,9.81,0,0,0-.25,1l.27.18,4.55-5-2-1.5.1-.32c2.9.8,5.79,1.66,8.82.88-2.71-.24-5.5-.15-7.79-2,3.27.87,6.54,1.59,10,1-3.06-.72-6.4-.57-9-2.66l.08-.33a13.05,13.05,0,0,1,1.9.39A28.83,28.83,0,0,0,69,98.2a19.22,19.22,0,0,0,6.14-1.4c-2,.09-4,.29-6.08.26a45.88,45.88,0,0,1-6.19-.52c-2-.31-4.12-.44-5.93-1.51l.07-.35,3.63.61c4.67.8,9.33,1.62,14.1.72a23.87,23.87,0,0,0,6.61-1.78,1.23,1.23,0,0,1,.41-.13,3.31,3.31,0,0,1,.6,0,15.14,15.14,0,0,1-1,1.23,14.77,14.77,0,0,1-5.15,2.84,66,66,0,0,1-6.5,2.29,32,32,0,0,1-10.4,1.26,4.78,4.78,0,0,1-.53-.06c-1.4-.29-1.46-.23-2,1.12a4.65,4.65,0,0,0,0,3.57c.29.71.58.79,1.12.21.94-1,1.81-2.08,2.74-3.1a7.3,7.3,0,0,1,1.21-1.08c.17-.12.49,0,.74-.06,0,.26.07.58-.05.78A12.44,12.44,0,0,1,61,105.29a5.14,5.14,0,0,0-1.39,2.29,13,13,0,0,0-.73,5.2c.09.6.36,1.5.78,1.66.74.27,1.22-.56,1.51-1.14a42.9,42.9,0,0,0,2.12-4.76,32,32,0,0,0,.91-4A3.66,3.66,0,0,1,66,101.83c-.13.56-.25,1.12-.38,1.68a9.63,9.63,0,0,0-.36,1.57c-.09,1.23.52,1.8,1.7,1.38a15.27,15.27,0,0,0,3.63-1.83c1.71-1.2,3.27-2.58,4.87-3.91a5.16,5.16,0,0,0,1.24-1.32,3.82,3.82,0,0,1,2.71-1.89,6.09,6.09,0,0,0,2-1.29,3.73,3.73,0,0,0,.65-1l.4.34a1.83,1.83,0,0,1-.29.51,6.46,6.46,0,0,1-1.78,1.47,4.9,4.9,0,0,0-2.57,2.21c-1.65,2.7-4.21,4.54-6.78,6.33a20.81,20.81,0,0,1-3,1.57,3.3,3.3,0,0,1-2.83.07l-2.86,6.5c1.71-.7,3.43-1.38,5.12-2.12a72.36,72.36,0,0,1,10.4-3.33,22.62,22.62,0,0,0,3.58-1.33A13.53,13.53,0,0,0,83.44,106l-.12-.26c-.43.1-.86.17-1.28.28a18,18,0,0,1-6.33.68,4.28,4.28,0,0,1-3-1.5l1.71.17a16.71,16.71,0,0,0,8.35-.93,10.39,10.39,0,0,0,5.2-4.26,5.68,5.68,0,0,0,.62-3.38,5.08,5.08,0,0,0-1.28.63c-1,1-1.81,2.17-2.87,3.1a15.77,15.77,0,0,1-5.89,3.08,15,15,0,0,1-3.5.53c4.49-1.28,8.56-3.1,11.24-7.09-.48-.23-.77-.09-1.13.4-1.68,2.23-3.67,4.06-6.63,4.52a15.44,15.44,0,0,1-1.67.08l0-.28a12.94,12.94,0,0,0,1.88-.48,8.6,8.6,0,0,0,2.36-1.2,38.19,38.19,0,0,0,3-3.09A.69.69,0,0,0,84,95.86a10.19,10.19,0,0,1-5.7,4.19l-.16-.21c.48-.33,1-.63,1.44-1,1.06-.83,2.13-1.67,3.13-2.57a2.16,2.16,0,0,0,.86-1.94c0-.13.12-.28.24-.52a2.92,2.92,0,0,1,.41.5c.56,1.25,1.67,1.5,2.9,1.48A3.35,3.35,0,0,0,90,94c.37-.6,0-1.14-.53-1.55s-.71.19-1,.36a6.8,6.8,0,0,1-1.11.34c0-.41-.2-1,0-1.21a5.13,5.13,0,0,1,2.15-1.32,3.62,3.62,0,0,0,2.78-4.75c-.53-1.57-.12-1.23-1.73-1.29-.79,0-1.58,0-2.37,0s-1.16.27-1.09,1.06c.06.57.08,1.15.11,1.73h.33c0-.21.06-.42.06-.63a11.86,11.86,0,0,1,0-1.19c0-.18.2-.34.31-.5.13.15.34.29.36.46.08.5.09,1,.13,1.65L88.76,85l.35,0L89,87.66l.2.06L90.33,85l.24,0a3,3,0,0,1-.08,1c-.48,1.19-1,2.35-1.55,3.52-.28.6-.65.72-1.23.28a3.82,3.82,0,0,1-1.31-3.69,3.64,3.64,0,0,0-.3-1.43c1.36-1.45,3.29-.75,5-.93-.5-1.88-2.85-1.61-5.9.64,0-1.1,1-2,3-3-.1-1.75-.18-3.53-.32-5.31a2.62,2.62,0,0,0-1.52-2.41,1.83,1.83,0,0,1-.45-.39l.15-.2,1.64,1Z"/><path class="cls-2" d="M37.27,70.36,34.05,72a18.31,18.31,0,0,1,6.42,3.4,4.12,4.12,0,0,1,.53.8,3,3,0,0,1-.91.33c-1.49,0-3,0-4.48,0a15.44,15.44,0,0,0-12.39,5.37,11.3,11.3,0,0,0-2,3.64c-.47,1.33.22,2,1.61,1.55,1.67-.51,3.29-1.19,4.91-1.83A30.32,30.32,0,0,1,37,83a1.1,1.1,0,0,1,.52,0,8.53,8.53,0,0,1,.83.62c-.27.26-.49.66-.81.76a11.77,11.77,0,0,1-2,.27,32.27,32.27,0,0,0-9.27,2.75c-.07,0-.12.1-.14.34a27.75,27.75,0,0,0,3-.49c1.55-.39,3.07-.9,4.61-1.37,0,0,0,0,.08,0,.53-.06,1.22-.41,1.44.3s-.48.89-1,1c-2.34.63-4.65,1.35-7,1.79a15,15,0,0,1-3.63-.22,11.2,11.2,0,0,0-1.29-.1,2.38,2.38,0,0,1-2.82-2.59,7.65,7.65,0,0,1,1.7-4.4c1.94-2.79,4.74-4.33,8-5.42a17.9,17.9,0,0,1,9.06-.66,1.36,1.36,0,0,0,.35,0,1.37,1.37,0,0,0,.32-.11,6.43,6.43,0,0,0-.88-.67c-1.47-.73-3-1.45-4.45-2.13a1.15,1.15,0,0,0-.91,0,41.92,41.92,0,0,0-3.77,2.32l4.78-2,.24.36a3.43,3.43,0,0,1-.71.67,27.6,27.6,0,0,1-7,2.49,2.39,2.39,0,0,1-3-2.36,7.58,7.58,0,0,1,3-6,27.81,27.81,0,0,1,7.43-4.59,15.82,15.82,0,0,0,2.71-1.55c1.79-1.23,3.54-2.51,5.3-3.77a2.81,2.81,0,0,0,.41-.5l-5.26-5.77a8.32,8.32,0,0,1,3.31,2.66c.54.7,1.06,1.43,1.63,2.1a1.72,1.72,0,0,0,1,.54l-5-6.32a2.53,2.53,0,0,1,1.74,1.15c1.12,1.45,2.22,2.92,3.35,4.37a1.16,1.16,0,0,0,.7.4c-1.1-2.43-3.38-4.08-4.33-6.63a8.41,8.41,0,0,1,.9.89c1.25,1.64,2.49,3.29,3.7,5,.45.61.78.16,1.22,0l-4.7-6.06.11-.16a2.7,2.7,0,0,1,.71.41c.84,1,1.63,2.07,2.45,3.1.56.69,1.1,1.4,1.7,2.06.17.18.53.2.8.29l.07-.2L41.91,50l.29-.25a8.11,8.11,0,0,1,.66.65c1.26,1.6,2.5,3.21,3.78,4.79.14.18.5.19.75.27l.11-.25-3.64-4L44.1,51c.62.58,1.28,1.14,1.86,1.76a15.05,15.05,0,0,1,1.53,1.87,1.1,1.1,0,0,0,1.55.48l-3.35-3.4c1.93,1,3,3.08,5.08,3.73l.24-.29L44.65,50C48.5,49.89,59.46,60.35,59,63.81c-.41-.23-.85-.34-1.06-.61-1.26-1.63-2.51-3.28-3.68-5a4.16,4.16,0,0,0-2.37-1.73c-3.15-.88-5.74.26-8.2,2.08s-4.84,3.5-7.36,5.1c-1.56,1-3.3,1.7-4.95,2.56-2.58,1.34-4.85,3-6,5.74a7.76,7.76,0,0,0-.48,2.39c0,.67.44.9,1.06.71a6.1,6.1,0,0,0,1.28-.57c3.36-2,6.69-4.07,10.08-6a27.63,27.63,0,0,0,8.12-7.55,12.84,12.84,0,0,1,4-3.62A3.24,3.24,0,0,1,52.18,57c-.7.56-1.31,1-1.85,1.49-.92.86-1.79,1.76-2.68,2.65l0,0-1.79,2-2.08,2.41c1,1.67,3.24,2.55,3.73,4.81l-4.7-3.93-3.62,2.7,5.09,4.28-.33.38L38.59,69.5l-1.35.88Z"/><path class="cls-2" d="M81.08,63.77a1.46,1.46,0,0,0-1.72,0c-1.48.81-.33,1.86-.2,2.89a2.62,2.62,0,0,1-.44-.25c-2.36-1.88-4.79-3.69-7-5.69A23.46,23.46,0,0,1,69,57.25c0-.07,0-.21.18-.46.54.52,1,1.07,1.62,1.56,2,1.75,4,3.5,6.11,5.21.21.18.64.1,1,.15a4.68,4.68,0,0,0,0-1c-.59-2.42-2.33-3.49-4.73-3.84a14.52,14.52,0,0,1-2.08-.62l.09-.39c1,.09,2,.15,3,.28s1.83.34,2.76.46,1.17-.34.73-1a4.3,4.3,0,0,0-1.56-1.41,4.46,4.46,0,0,0-4.67.13c-.17.12-.47.08-.71.11,0-.26-.13-.62,0-.75a4.11,4.11,0,0,1,1.51-1.21A5.51,5.51,0,0,1,78.9,57c.67,1.3.36,2.2-1,2.92l1.34,2.68c1.55-.73,2.67,0,3.61,1.06.25.27.17.81.24,1.23l-.24.09c1.79,1.26,3.58,2.51,5.35,3.79A4,4,0,0,1,89.37,70a8.61,8.61,0,0,1,.42,1.57,2.21,2.21,0,0,0,.4.83c1.61,1.76,2.87,3.67,2.94,6.12a3.29,3.29,0,0,1-1.56,3c0-.4,0-.63.08-.86.75-3.46-.82-5.94-3.57-7.9A10.7,10.7,0,0,0,81.43,71c-1,0-2,.14-3,.18-.78,0-1.56,0-2.59,0l1.74,2.43c-.41.53-1,.56-1.53-.14s-.94-1.56-1.45-2.32a3.13,3.13,0,0,0-.7-.59,2.62,2.62,0,0,0-.34.94,3.24,3.24,0,0,0,1.48,2.41c1.24,1,1.42.88,2.87.18A6.61,6.61,0,0,1,84,73.74,3.84,3.84,0,0,1,85.94,78c-.11.36-.59.61-.9.91a6.24,6.24,0,0,1-.58-1,3,3,0,0,1,0-.85,2.17,2.17,0,0,0-2.27-2.31c-1.92-.19-3.6.61-5.33,1.18-1.53.51-3.08,1.06-4.7.53a8,8,0,0,1-2.29-1.3c1.61.16,3.16.56,4.64.08a11.52,11.52,0,0,0-1-1.18,4.39,4.39,0,0,1-1.33-3,3,3,0,0,1,1.82-2.28,1.47,1.47,0,0,1,.91.36,5,5,0,0,1,.72.79c.5-.24.94-.64,1.37-.65,3.1,0,6.22-.28,9.24.69.6.19,1.18.45,1.77.68l.17-.22L84.4,67.79l-2.64.65c-.41-.73-.25-1,.85-1.11a.84.84,0,0,0-1.5.09A8,8,0,0,0,81,68.91a1.79,1.79,0,0,1-.28-2.29c.73-.82,1.61-.19,2.43,0l.15-.18L81.15,65l.09-.37-1.15,1.57C79.86,65.12,80.58,64.5,81.08,63.77Z"/><path class="cls-2" d="M31.72,63.91l-9.19,4,0,.16h2.5l.14.19a4.85,4.85,0,0,1-1.05.84,5.25,5.25,0,0,1-5.75-1A3.09,3.09,0,0,1,17.85,65c.64-2.87,2.62-4.75,5.13-6.18a20.7,20.7,0,0,1,9.8-2.86c0-.11,0-.2,0-.21C31,54.32,29.05,53.09,26.59,53a4,4,0,0,1-1.2-.5c.39-.33.82-1,1.17-.92a8.93,8.93,0,0,1,3.41.85,50.86,50.86,0,0,1,4.73,3.45c-.11-.45-.19-.83-.29-1.2a2.87,2.87,0,0,1-.24-1c.14-.87-.26-1.23-1.05-1.55a8.45,8.45,0,0,1-4.09-3l5.21,3.29.46-1.17L29.65,48c2.18.17,3.55,1.74,5.2,2.82,2.36-3.1,5.27-3.68,8-2.74l-4.25.85,0,.17h3.9l0,.21c-.6.09-1.21.15-1.81.28-2.3.5-4.33,1.35-5.34,3.65a2.56,2.56,0,0,0,.41,2.5c.17.29.92.25,1.4.35l.13-.22L36,54.14c.69-.13,1.06.1,1.6.87.35.5.33,1.32,1.42,1.22l-2.54-3,.06-.12a3.18,3.18,0,0,1,.71.45c.85,1,1.64,2,2.52,2.92.5.52,1.15.91,1.7,1.53a7.87,7.87,0,0,1-1.2-.12,21.65,21.65,0,0,0-12.94.53c-2.83,1-5.53,2.29-7.15,4.94a7.94,7.94,0,0,0-.94,2.54c-.19.94.37,1.42,1.33,1.2a13.53,13.53,0,0,0,1.95-.75c2.52-1,5-2,7.55-3a4.64,4.64,0,0,1,1.54,0Z"/><path class="cls-2" d="M69.75,83.65a15.59,15.59,0,0,0,5.84,3c2.1.52,4.29.7,6.5,1.19a11.81,11.81,0,0,1-1.42.36,47.89,47.89,0,0,1-5.83.64c-3.27,0-6.56-.22-9.57-1.69-2.69-1.32-5.37-2.65-8-4.06a26.82,26.82,0,0,0-7.35-2.39,1.82,1.82,0,0,1-.39-.14l0-.23a13.35,13.35,0,0,1,1.77-.21c2.89,0,5.34,1.24,7.81,2.51,2.84,1.46,5.74,2.81,8.61,4.2a8.21,8.21,0,0,0,1,.33l.21-.21a1.52,1.52,0,0,1-.38-.11c-2.66-1.54-5.34-3-8-4.64a32.07,32.07,0,0,0-7.74-3.53c-.1,0-.18-.12-.25-.36.31,0,.63,0,.95,0a17.15,17.15,0,0,1,7.75,2.94c2.22,1.42,4.44,2.85,6.74,4.15a14.9,14.9,0,0,0,5.77,1.86c-.92-.48-1.88-.9-2.74-1.46-2.23-1.46-4.46-2.94-6.61-4.5a24.12,24.12,0,0,0-8.75-4,1.94,1.94,0,0,1-.74-.32,8.75,8.75,0,0,1,4,.19c2.53.49,4.5,2,6.5,3.42.83.6,1.71,1.15,2.58,1.72Z"/><path class="cls-2" d="M29.75,45.05c-1.29.91-2.6,1.79-3.86,2.74a22.55,22.55,0,0,0-5.28,5.08,14.47,14.47,0,0,0-1,2.26l.37-.05c.28.32.8.65.77.94A1.69,1.69,0,0,1,20,57.09a1.1,1.1,0,0,1-1.49-.32,2.6,2.6,0,0,1-.37-2.51A11.94,11.94,0,0,1,21.78,49,38.23,38.23,0,0,1,33,41.79a24.7,24.7,0,0,1,11.2-2,9.13,9.13,0,0,1,2.2.5c.84.29,1.13,1.86.38,2.86,0-.69,0-1.18,0-1.66s-.21-.84-.86-.89C41.09,40.23,37,42,33.18,44.67A54.77,54.77,0,0,0,23,54.49a5.33,5.33,0,0,0-.33.45c1.4-.48,2.72-.95,4.06-1.36.26-.08.6.09.9.14-.19.22-.34.54-.58.63-1.33.52-2.67,1-4,1.47-.53.18-1.1.36-1.52-.2a1.19,1.19,0,0,1,.12-1.57c1-1.2,1.94-2.42,3-3.55,1.69-1.8,3.45-3.53,5.19-5.29Z"/><path class="cls-2" d="M48,82.67c.15-.82.66-.78,1.17-.77A17.26,17.26,0,0,1,56.48,84C60,85.67,63.55,87.37,67.1,89A19.51,19.51,0,0,0,73,90.72a9.85,9.85,0,0,0,5.3-.83c.88-.39,1.82-.66,2.74-1l.25.3a8.5,8.5,0,0,1-1.5,1.7c-2.29,1.57-4.92,1.7-7.58,1.35-3.74-.51-7-2.31-10.37-3.8-4.07-1.8-8.15-3.56-12.24-5.32A15.74,15.74,0,0,0,48,82.67Z"/><path class="cls-2" d="M69.75,83.65l-1.7-1.29c-2.31-1.83-4.56-3.73-6.95-5.45a13.38,13.38,0,0,0-3.21-1.21,5.06,5.06,0,0,1,4.9.84,59.1,59.1,0,0,1,4.78,3.88,16.19,16.19,0,0,0,8.72,4.21A29.76,29.76,0,0,1,68.67,80c-2.21-2-4.4-4.07-6.54-6.17a5.45,5.45,0,0,1,3.21,1.79,37,37,0,0,0,8.48,7,40.27,40.27,0,0,0,8.66,3.36,8.27,8.27,0,0,1,1.47.52c.21.1.31.42.45.63-.24.14-.48.39-.72.39a8.64,8.64,0,0,1-1.82-.23c-2.38-.54-4.78-1-7.14-1.7-1.42-.39-2.78-1-4.16-1.55Z"/><path class="cls-2" d="M85.45,79.47a2.17,2.17,0,0,1-1.09,2.19,7,7,0,0,1-5,1.25,14.36,14.36,0,0,1-6.47-1.6,9.84,9.84,0,0,1-5.15-7,9.73,9.73,0,0,1,.15-2.68c0-.26.33-.48.51-.72.13.21.35.42.38.64.14.87.23,1.74.31,2.61.3,3.25,2.34,5.15,5.33,6.09a12.74,12.74,0,0,0,9.82-.46A5.46,5.46,0,0,1,85.45,79.47Z"/><path class="cls-2" d="M55.54,55.05Q53,52.22,50.37,49.39l.25-.32a4.74,4.74,0,0,1,1.36.71c1.47,1.5,3,3,4.27,4.62,1.76,2.16,3.39,4.42,5,6.65a12.58,12.58,0,0,1,1,1.69.58.58,0,0,1,0,.45s-.24,0-.37,0c-1.06.14-1.43-.67-1.89-1.33a42.75,42.75,0,0,0-7.78-8.62c-1.27-1-2.68-1.93-4-2.89a1.79,1.79,0,0,1-.58-.64c3.24.91,5.28,3.42,7.69,5.45Z"/><path class="cls-2" d="M81.5,92A19.9,19.9,0,0,1,68.58,93.6c-4.4-.95-7.31-2.35-7.73-3.77,1,.35,2,.61,2.94,1a21.11,21.11,0,0,0,11.23,2c1.93-.26,3.84-.69,5.76-1,.22,0,.45-.06.67-.09Z"/><path class="cls-2" d="M58.43,92.19c1,.25,2.13.43,3.16.76A36.61,36.61,0,0,0,72.67,94.8a18.18,18.18,0,0,0,6-.82,3.35,3.35,0,0,1,.82-.08c-2.82,2.73-18.35,1.65-21.2-1.43Z"/><path class="cls-2" d="M58.54,45.9c.6,1.24,1.17,2.27,1.61,3.35,1.56,3.85,3,7.74,5.44,11.19l1.18,1.69C63.73,60.19,57.63,48.32,58.54,45.9Z"/><path class="cls-2" d="M63.77,62.91c-.4-.63-.84-1.23-1.21-1.88A53.35,53.35,0,0,0,54,49.77a7.77,7.77,0,0,1-1.22-1.86C55.21,48.54,64,60.38,63.77,62.91Z"/><path class="cls-2" d="M65.45,63c-.24-.28-.51-.54-.72-.84-2.39-3.56-4.79-7.11-7.16-10.68a8,8,0,0,1-1.72-4c0-.11,0-.21,0-.59l9.79,16Z"/><path class="cls-2" d="M80.47,93.4l3.63-1-2.84-1.15.09-.38c.33,0,.67,0,1,0a2.84,2.84,0,0,0,1.08,0,7.68,7.68,0,0,1-1.08-.64,3,3,0,0,1-.51-.68c.27,0,.54,0,.8,0a2.42,2.42,0,0,1,.48.16l-.33-1.14a6.78,6.78,0,0,1,2.76,2.41c.08.09,0,.32,0,.46a5.33,5.33,0,0,1-.31.51c-.22.44-.35,1.18-.67,1.28a26,26,0,0,1-3.52.65C80.92,93.84,80.76,93.62,80.47,93.4Z"/><path class="cls-2" d="M66.61,45.82v9.92C65.38,54.26,65.43,46.64,66.61,45.82Z"/><path class="cls-2" d="M64.07,45c.05,1.14.12,2.09.13,3,0,2.2-.14,4.43.55,6.58.26.83.56,1.65.85,2.5C63.86,55.52,62.49,46.19,64.07,45Z"/><path class="cls-2" d="M76.09,104.75a11.85,11.85,0,0,0,9.35-3.68c.65-.63,1.42-1.15,2.13-1.72l.23.09c-.11.32-.12.77-.34.94-2.1,1.63-4.09,3.44-6.73,4.2A8.49,8.49,0,0,1,76.09,104.75Z"/><path class="cls-2" d="M66.79,55.38a3.58,3.58,0,0,1-.1-.8c.17-2.71.35-5.41.55-8.12,0-.13.18-.25.29-.39C68.3,47,67.88,53.37,66.79,55.38Z"/><path class="cls-2" d="M84.09,72.58a5.32,5.32,0,0,1,1.25.66c1.57,1.38,2.67,3,2.48,5.19-.06.7,0,1.42,0,2.13,0,.15-.25.29-.39.43a1.56,1.56,0,0,1-.19-.49A31.55,31.55,0,0,0,87,76.85c-.26-1.63-1.48-2.72-2.72-3.73-.12-.1-.25-.19-.38-.28Z"/><path class="cls-2" d="M87.77,74.12l-.16-.63c1.8.34,4.13,6.38,2.93,8.15-.18-1-.31-1.88-.48-2.71a9.92,9.92,0,0,0-1.63-4.25,5,5,0,0,0-.69-.59Z"/><path class="cls-2" d="M37.24,70.38a17.73,17.73,0,0,1,2.87,1.3,39.54,39.54,0,0,1,3.27,2.66c.07.06.06.21.16.59a11.71,11.71,0,0,1-1.16-.6Q40,72.65,37.7,70.93a2.51,2.51,0,0,1-.43-.57Z"/><path class="cls-2" d="M64.32,39.55a10.58,10.58,0,0,1,1.59-5.29,5.14,5.14,0,0,1,.7-.7l.24.18c-.34.87-.7,1.74-1,2.63s-.59,1.83-.93,2.73c-.08.19-.4.29-.6.44Z"/><path class="cls-2" d="M60.74,32.85c.51.8.32,5.22-.22,5.91C60,38.13,60.07,34.12,60.74,32.85Z"/><path class="cls-2" d="M42.67,75.71c-.75-.41-1.52-.8-2.25-1.25C39,73.57,37.54,72.64,36,71.64c.3,0,.51-.1.63,0q3,1.8,6,3.63c.11.06.16.21.23.32Z"/><path class="cls-2" d="M40.13,42l1.78,4.82C40.67,46.49,39.4,43.29,40.13,42Z"/><path class="cls-2" d="M43,47.4a8.57,8.57,0,0,1-1.11-5.22A17.27,17.27,0,0,1,43,47.4Z"/><path class="cls-2" d="M33.46,54.15c-2.24-1-3.57-3.3-6.1-3.9a1.25,1.25,0,0,1,1.58.12C30.5,51.54,32,52.76,33.58,54Z"/><path class="cls-2" d="M52.73,33.83c1.07.72,1.84,4.07,1.17,5.61Z"/><path class="cls-2" d="M68.11,34.1l-1.66,5C65.76,38.32,66.86,34.75,68.11,34.1Z"/><path class="cls-2" d="M39.5,47c-1.35-.18-3-2.35-2.78-3.49Z"/><path class="cls-2" d="M35.14,49.77c-1.76-.25-2.49-1.76-3.89-2.39C32,47,34.37,48.49,35.14,49.77Z"/><path class="cls-2" d="M44.78,44.86c-.7-1.61-.63-3.3.28-3.81C44.81,42.41,45.24,43.65,44.78,44.86Z"/><path class="cls-2" d="M43.79,45.67c-.77-.8-1-3.18-.38-4.05A14.58,14.58,0,0,1,43.79,45.67Z"/><path class="cls-2" d="M35.59,44,38,47.58A3.54,3.54,0,0,1,35.59,44Z"/><path class="cls-2" d="M35.74,48.72a4.13,4.13,0,0,1-2.81-3.3Z"/><path class="cls-2" d="M40.82,47.1c-.9-.18-2-2.21-1.69-3.57Z"/><path class="cls-2" d="M91.33,88.71c-.63-.5-.37-2.95.34-3.55Z"/><path class="cls-2" d="M33.82,45.81a2.55,2.55,0,0,1,2.4,2.1Z"/><path class="cls-2" d="M67.27,39.34a3.59,3.59,0,0,1,.48-2.62A15.38,15.38,0,0,1,69.21,34l-2,5.31Z"/><path class="cls-2" d="M46,41.21a2,2,0,0,1-.13,2.64l-.19-2.63Z"/><path class="cls-2" d="M6.45,91.1l1.21,5.24a26.41,26.41,0,0,1-2.8-4.73c-.44-.9-.2-.42-.52-1C1.14,84.63.06,76.77,0,70.05-.09,58.79,1.39,47.79,6.43,37.52,16.08,17.88,31.63,4.7,53.82,1A71.34,71.34,0,0,1,97.54,7.25a53.5,53.5,0,0,1,15.88,11.43c3.22,3.49,6.3,7.11,9.5,10.62,4.73,5.21,6.77,11.75,9.47,18,3.6,8.26,3.38,17,3,25.65a59.18,59.18,0,0,1-13.17,35c-6,7.57-12.87,14.41-21.45,19.1-19,10.43-39,11.61-59,3.15-9.71-4.1-17.56-10.93-24.93-18.47-1.59-1.63-8.1-12.56-9.15-15.12,1.62,1.12,9,10.91,10.2,12a80.59,80.59,0,0,0,9.4,7.77c4.27,3.61,9.81,8.45,15.13,10.75,8.76,3.8,19.61,5,29.19,5.3,10.14.28,19.67-3.63,28.48-8.54,9.37-5.23,17-11.78,22.34-21,7.55-13.06,12.64-29.57,9.14-44.57-.52-2.25-2.43-3.38-2.87-5.65-.73-3.72-2.36-6.6-6.68-7.46a5.1,5.1,0,0,1-3.82-6.28c1-4.72-.24-7.13-4.7-9.16-1.89-.87-3-2.05-2.81-4.2.15-2,.48-3.62-.57-5.84-.93-2-3.5-2.95-5.28-4.27a69.28,69.28,0,0,0-7.21-4.44C95.15,9.5,90.56,10,87.88,9a4.68,4.68,0,0,0-3.07,0c-2,.76-3.29.31-4.77-1.1-1.13-1.08-2.7-3.16-4.22-3.48C63.34,1.77,50.18,6.09,36.27,11.72A92.25,92.25,0,0,0,22.71,21,59.64,59.64,0,0,0,7.06,41.66C5.15,45.94,5.67,50.1,5.5,54.84a10.91,10.91,0,0,1-1.26,4.25C2.44,62.66,2.89,66.26,3.63,70a60.39,60.39,0,0,1,.59,6.31,23.94,23.94,0,0,0,.34,3.19C5.39,83,6.21,89.67,6.21,89.67Z"/><path class="cls-2" d="M95.86,15.7c.36,17.25,0,110.32,0,110.32"/><path class="cls-2" d="M95.94,15.7c.19,2.33.33,4.67.42,7,0,1.17.1,2.34.14,3.51s.07,2.33.09,3.5l0,3.51v3.5s.1,4.67,0,7c-.1,4.67-.36,9.34-.41,14s0,9.35.15,14c.06,2.33.14,4.67.19,7s.07,4.67.09,7c0,4.67.08,9.35,0,14,0,2.33,0,4.67-.1,7l-.08,3.51-.09,3.5c-.1,3.2.63,10.85,2.39,11.2,1.39.27-2.37.23-2.46,1.7l-.53.34c-.07-1.43-2.48.92-1.75-.34,1.58-2.73,1.18-9.67,1.1-12.9l-.6-3.51v-14l1-3.5v-7s-.36-4.67-.29-7,.14-4.67.21-7c.16-4.68.25-9.35.21-14s-.3-9.34-.4-14c0-2.34.27-7,.27-7v-7s0-9.34.17-14Z"/><path class="cls-2" d="M103.67,26.11a3.12,3.12,0,0,1-.88-.12,2.69,2.69,0,0,1-.79-.37v-1h.62l.1.67a1.36,1.36,0,0,0,.42.19,1.79,1.79,0,0,0,.53.07,1.34,1.34,0,0,0,.48-.08.64.64,0,0,0,.29-.22.55.55,0,0,0,.1-.34.54.54,0,0,0-.09-.31.66.66,0,0,0-.29-.25,3,3,0,0,0-.56-.2,4.32,4.32,0,0,1-.87-.32,1.56,1.56,0,0,1-.52-.45,1,1,0,0,1-.18-.61,1.1,1.1,0,0,1,.2-.64,1.5,1.5,0,0,1,.57-.44,2.07,2.07,0,0,1,.82-.16,2.77,2.77,0,0,1,.91.13,2.22,2.22,0,0,1,.67.35v1h-.6l-.12-.63a1.08,1.08,0,0,0-.34-.15,1.7,1.7,0,0,0-.49-.07,1.08,1.08,0,0,0-.42.08.66.66,0,0,0-.29.22.52.52,0,0,0-.11.33.44.44,0,0,0,.1.3.84.84,0,0,0,.3.23,3.86,3.86,0,0,0,.59.21A2.88,2.88,0,0,1,105,24a1.12,1.12,0,0,1,.39.88,1.05,1.05,0,0,1-.21.65,1.32,1.32,0,0,1-.59.43A2.16,2.16,0,0,1,103.67,26.11Z"/><path class="cls-2" d="M102.71,33.71v-.47l.51-.09V29.82h-.93l-.07.57h-.6V29.22h4v1.17H105l-.07-.57H104v3.33l.5.09v.47Z"/><path class="cls-2" d="M101.61,41.39v-.48l.51-.09V37.46l-.51-.09v-.48h2.14a2.36,2.36,0,0,1,.89.16,1.24,1.24,0,0,1,.56.44,1.26,1.26,0,0,1,.19.71,1.18,1.18,0,0,1-.19.68,1.25,1.25,0,0,1-.53.46,2,2,0,0,1-.81.17h-.94v1.3l.5.09v.48Zm1.31-2.48h.79a1,1,0,0,0,.67-.18.63.63,0,0,0,.22-.51.69.69,0,0,0-.21-.53.93.93,0,0,0-.64-.2h-.83Zm1.7,2.48-.88-2.07.75-.12.75,1.63.36.07v.49Z"/><path class="cls-2" d="M101.37,49.06v-.48l.34,0,1.53-4H104l1.51,4,.34,0v.48H104.4v-.48l.33-.06-.25-.7h-1.72l-.25.7.34.06v.48Zm1.6-1.84h1.31l-.6-1.66,0-.12h0l-.05.12Z"/><path class="cls-2" d="M101.29,56.73v-.48l.51-.09V52.81l-.51-.1v-.47h1.32l2.12,3.27h0v-2.7l-.58-.1v-.47H106v.47l-.51.1v3.92h-.76l-2.17-3.27h0v2.7l.59.09v.48Z"/><path class="cls-2" d="M103.79,64.46a2.19,2.19,0,0,1-1.14-.28,1.92,1.92,0,0,1-.74-.78,2.54,2.54,0,0,1-.26-1.16v-.12a2.61,2.61,0,0,1,.26-1.19,2,2,0,0,1,.71-.8,2,2,0,0,1,1.08-.29,3,3,0,0,1,.93.13,2.26,2.26,0,0,1,.71.36v1h-.62l-.1-.62a1,1,0,0,0-.35-.16,1.9,1.9,0,0,0-.5-.06,1.13,1.13,0,0,0-.69.21,1.34,1.34,0,0,0-.46.58,2.14,2.14,0,0,0-.17.87v.13a2.22,2.22,0,0,0,.16.85,1.37,1.37,0,0,0,.46.57,1.34,1.34,0,0,0,.74.2,2.38,2.38,0,0,0,.49,0,2.12,2.12,0,0,0,.36-.13V62.8l-.76,0V62.2h1.56V64a2.46,2.46,0,0,1-.67.33A3,3,0,0,1,103.79,64.46Z"/><path class="cls-2" d="M101.76,72.07v-.48l.5-.09V68.15l-.5-.1v-.47h3.52v1.15h-.62l-.06-.56h-1.54v1.28h1.62v.6h-1.62v1.43h1.63l0-.57h.62v1.16Z"/><path class="cls-2" d="M101.83,82.65v-.48l.5-.09V78.73l-.5-.09v-.48h3.59v1.16h-.62l0-.56h-1.62v1.37h1.65v.6h-1.65v1.35l.51.09v.48Z"/><path class="cls-2" d="M101.61,90.32v-.48l.51-.09V86.4l-.51-.09v-.48h2.14a2.37,2.37,0,0,1,.89.15,1.33,1.33,0,0,1,.56.45,1.37,1.37,0,0,1,0,1.39,1.3,1.3,0,0,1-.53.45,1.86,1.86,0,0,1-.81.17h-.94v1.3l.5.09v.48Zm1.31-2.47h.79a1,1,0,0,0,.67-.18.65.65,0,0,0,.22-.52.67.67,0,0,0-.21-.52.88.88,0,0,0-.64-.2h-.83Zm1.7,2.47-.88-2.07.75-.12.75,1.63.36.08v.48Z"/><path class="cls-2" d="M103.61,98.06a2.26,2.26,0,0,1-.92-.19,1.46,1.46,0,0,1-.62-.53,1.5,1.5,0,0,1-.23-.83V94.07l-.5-.09V93.5h1.81V94l-.51.09v2.44a1.05,1.05,0,0,0,.12.52.81.81,0,0,0,.34.32,1.19,1.19,0,0,0,.51.1,1.25,1.25,0,0,0,.53-.1.81.81,0,0,0,.34-.32,1,1,0,0,0,.12-.52V94.07l-.5-.09V93.5h1.8V94l-.5.09v2.44a1.4,1.4,0,0,1-.85,1.37A2.28,2.28,0,0,1,103.61,98.06Z"/><path class="cls-2" d="M102.72,105.66v-.47l.5-.1v-3.35l-.5-.09v-.48h1.8v.48l-.5.09v3.35l.5.1v.47Z"/><path class="cls-2" d="M102.71,113.33v-.47l.51-.09v-3.33h-.93l-.07.57h-.6v-1.17h4V110H105l-.07-.57H104v3.33l.5.09v.47Z"/></g></g></svg>